<svg width="246" height="120" viewBox="0 0 246 120" fill="none" xmlns="http://www.w3.org/2000/svg">
<path d="M107.5 48.5762L238.512 68.342L221.857 52.5409L221.077 51.8016V50.7273V2.5H107.5V48.5762Z" fill="white" stroke="#A9B7C0" stroke-width="5"/>
<path d="M138.5 96.5762L7.48812 116.342L24.1433 100.541L24.9227 99.8016V98.7273V50.5H138.5V96.5762Z" fill="white" stroke="#192231" stroke-width="5"/>
<path d="M130.116 39.252C128.388 39.252 126.888 38.88 125.616 38.136C124.344 37.392 123.36 36.348 122.664 35.004C121.992 33.636 121.656 32.04 121.656 30.216C121.656 28.392 122.004 26.796 122.7 25.428C123.42 24.036 124.416 22.956 125.688 22.188C126.984 21.42 128.496 21.036 130.224 21.036C131.4 21.036 132.552 21.252 133.68 21.684C134.808 22.092 135.72 22.644 136.416 23.34L135.444 25.5C133.788 24.156 132.108 23.484 130.404 23.484C128.604 23.484 127.2 24.072 126.192 25.248C125.184 26.424 124.68 28.08 124.68 30.216C124.68 32.328 125.184 33.96 126.192 35.112C127.2 36.264 128.604 36.84 130.404 36.84C132.108 36.84 133.788 36.168 135.444 34.824L136.416 36.984C135.672 37.68 134.736 38.232 133.608 38.64C132.48 39.048 131.316 39.252 130.116 39.252ZM148.747 21.036C152.947 21.036 155.047 23.352 155.047 27.984V39H152.131V28.164C152.131 26.532 151.807 25.344 151.159 24.6C150.535 23.856 149.527 23.484 148.135 23.484C146.527 23.484 145.243 23.976 144.283 24.96C143.323 25.944 142.843 27.276 142.843 28.956V39H139.927V13.62H142.843V24.276C143.419 23.22 144.211 22.416 145.219 21.864C146.251 21.312 147.427 21.036 148.747 21.036ZM160.388 21.468H163.304V39H160.388V21.468ZM163.628 13.872V17.148H160.1V13.872H163.628ZM176.459 36.912C176.987 36.912 177.515 36.876 178.043 36.804L177.899 39.108C177.347 39.204 176.747 39.252 176.099 39.252C173.987 39.252 172.391 38.7 171.311 37.596C170.255 36.492 169.727 34.956 169.727 32.988V23.772H166.307V21.468H169.727V16.14H172.643V21.468H177.611V23.772H172.643V32.772C172.643 35.532 173.915 36.912 176.459 36.912ZM184.721 35.328V39H181.049V35.328H184.721ZM192.948 35.328V39H189.276V35.328H192.948ZM201.174 35.328V39H197.502V35.328H201.174Z" fill="black"/>
<path d="M40.116 87.252C38.388 87.252 36.888 86.88 35.616 86.136C34.344 85.392 33.36 84.348 32.664 83.004C31.992 81.636 31.656 80.04 31.656 78.216C31.656 76.392 32.004 74.796 32.7 73.428C33.42 72.036 34.416 70.956 35.688 70.188C36.984 69.42 38.496 69.036 40.224 69.036C41.4 69.036 42.552 69.252 43.68 69.684C44.808 70.092 45.72 70.644 46.416 71.34L45.444 73.5C43.788 72.156 42.108 71.484 40.404 71.484C38.604 71.484 37.2 72.072 36.192 73.248C35.184 74.424 34.68 76.08 34.68 78.216C34.68 80.328 35.184 81.96 36.192 83.112C37.2 84.264 38.604 84.84 40.404 84.84C42.108 84.84 43.788 84.168 45.444 82.824L46.416 84.984C45.672 85.68 44.736 86.232 43.608 86.64C42.48 87.048 41.316 87.252 40.116 87.252ZM58.7466 69.036C62.9466 69.036 65.0466 71.352 65.0466 75.984V87H62.1306V76.164C62.1306 74.532 61.8066 73.344 61.1586 72.6C60.5346 71.856 59.5266 71.484 58.1346 71.484C56.5266 71.484 55.2426 71.976 54.2826 72.96C53.3226 73.944 52.8426 75.276 52.8426 76.956V87H49.9266V61.62H52.8426V72.276C53.4186 71.22 54.2106 70.416 55.2186 69.864C56.2506 69.312 57.4266 69.036 58.7466 69.036ZM77.5155 69.036C79.7475 69.036 81.4035 69.612 82.4835 70.764C83.5875 71.892 84.1395 73.62 84.1395 75.948V87H81.2955V84.012C80.8395 85.044 80.1435 85.848 79.2075 86.424C78.2715 86.976 77.1915 87.252 75.9675 87.252C74.8395 87.252 73.7955 87.024 72.8355 86.568C71.8995 86.112 71.1555 85.476 70.6035 84.66C70.0515 83.844 69.7755 82.944 69.7755 81.96C69.7755 80.64 70.1115 79.62 70.7835 78.9C71.4555 78.156 72.5595 77.628 74.0955 77.316C75.6315 76.98 77.7675 76.812 80.5035 76.812H81.2955V75.624C81.2955 74.16 80.9955 73.104 80.3955 72.456C79.7955 71.784 78.8235 71.448 77.4795 71.448C75.4635 71.448 73.4595 72.072 71.4675 73.32L70.4955 71.196C71.4075 70.548 72.4995 70.032 73.7715 69.648C75.0675 69.24 76.3155 69.036 77.5155 69.036ZM76.3635 84.948C77.8035 84.948 78.9795 84.468 79.8915 83.508C80.8275 82.524 81.2955 81.264 81.2955 79.728V78.684H80.6475C78.5355 78.684 76.9275 78.78 75.8235 78.972C74.7195 79.14 73.9275 79.44 73.4475 79.872C72.9915 80.28 72.7635 80.892 72.7635 81.708C72.7635 82.644 73.0995 83.424 73.7715 84.048C74.4675 84.648 75.3315 84.948 76.3635 84.948ZM97.1813 84.912C97.7093 84.912 98.2373 84.876 98.7653 84.804L98.6213 87.108C98.0693 87.204 97.4693 87.252 96.8213 87.252C94.7093 87.252 93.1133 86.7 92.0333 85.596C90.9773 84.492 90.4493 82.956 90.4493 80.988V71.772H87.0293V69.468H90.4493V64.14H93.3653V69.468H98.3333V71.772H93.3653V80.772C93.3653 83.532 94.6373 84.912 97.1813 84.912ZM105.444 83.328V87H101.772V83.328H105.444ZM113.67 83.328V87H109.998V83.328H113.67ZM121.897 83.328V87H118.225V83.328H121.897Z" fill="black"/>
</svg>
