<svg width="26" height="22" viewBox="0 0 26 22" fill="none" xmlns="http://www.w3.org/2000/svg">
<path d="M12.5098 5.33081C8.96065 5.33081 6.09793 7.8357 6.09793 10.9412C6.09793 14.0466 8.96065 16.5515 12.5098 16.5515C16.0589 16.5515 18.9216 14.0466 18.9216 10.9412C18.9216 7.8357 16.0589 5.33081 12.5098 5.33081ZM12.5098 14.5886C10.2162 14.5886 8.34123 12.9529 8.34123 10.9412C8.34123 8.92945 10.2106 7.29371 12.5098 7.29371C14.8089 7.29371 16.6783 8.92945 16.6783 10.9412C16.6783 12.9529 14.8033 14.5886 12.5098 14.5886ZM20.6794 5.10132C20.6794 5.82886 20.0097 6.40992 19.1839 6.40992C18.3524 6.40992 17.6883 5.82398 17.6883 5.10132C17.6883 4.37866 18.358 3.79273 19.1839 3.79273C20.0097 3.79273 20.6794 4.37866 20.6794 5.10132ZM24.926 6.42945C24.8312 4.67652 24.3736 3.12378 22.9059 1.84448C21.4439 0.565186 19.6693 0.164795 17.666 0.0769043C15.6013 -0.0256348 9.41266 -0.0256348 7.34793 0.0769043C5.35016 0.159912 3.57561 0.560303 2.10798 1.8396C0.640345 3.1189 0.188337 4.67163 0.0878905 6.42456C-0.0292968 8.23121 -0.0292968 13.6462 0.0878905 15.4529C0.182756 17.2058 0.640345 18.7586 2.10798 20.0379C3.57561 21.3172 5.34458 21.7175 7.34793 21.8054C9.41266 21.908 15.6013 21.908 17.666 21.8054C19.6693 21.7224 21.4439 21.322 22.9059 20.0379C24.368 18.7586 24.8256 17.2058 24.926 15.4529C25.0432 13.6462 25.0432 8.23609 24.926 6.42945ZM22.2586 17.3914C21.8234 18.3484 20.9807 19.0857 19.8814 19.4714C18.2352 20.0427 14.3289 19.9109 12.5098 19.9109C10.6906 19.9109 6.77873 20.0379 5.13811 19.4714C4.04436 19.0906 3.20173 18.3533 2.76088 17.3914C2.10798 15.9509 2.25865 12.533 2.25865 10.9412C2.25865 9.34937 2.11356 5.92652 2.76088 4.49097C3.19615 3.53394 4.03878 2.79663 5.13811 2.41089C6.78431 1.8396 10.6906 1.97144 12.5098 1.97144C14.3289 1.97144 18.2408 1.84448 19.8814 2.41089C20.9751 2.79175 21.8178 3.52905 22.2586 4.49097C22.9115 5.9314 22.7609 9.34937 22.7609 10.9412C22.7609 12.533 22.9115 15.9558 22.2586 17.3914Z" fill="#F1F1F1"/>
</svg>
